<svg width="25" height="50" viewBox="0 0 25 50" xmlns="http://www.w3.org/2000/svg"><title>33243EDC-CE5C-4E12-B6E5-9CB674EA18F3</title><path d="M19.995 7.389c-.002-.095 0-.32 0-.389h-2.693c.053-1.16 0-2 0-2H12.53c-.011 0-.022 0-.033.002A.326.326 0 0 0 12.462 5H7.677s-.053.84 0 2H5.005L5 7.143v1.071h.005c.028.874.167 2.043.748 3.239a6.713 6.713 0 0 0 2.11 2.523c.75.547 1.608.94 2.55 1.175.545.581 1.082.902 1.551 1.03v1.193C11.897 17.73 11.834 19 9 19H8v1h9v-1h-1c-3.324 0-2.965-1.723-2.965-1.723V16.18c.47-.128.996-.447 1.538-1.026.95-.234 1.81-.63 2.565-1.179a6.713 6.713 0 0 0 2.109-2.523c.793-1.633.763-3.215.748-4.064zM6 8h1.688c.03.298.146.807.192 1.084.285 1.698.677 3.197 1.418 4.52a5.692 5.692 0 0 1-2.582-2.62C6.232 9.989 6.028 8.77 6 8zm12.283 2.985a5.693 5.693 0 0 1-2.602 2.63c.743-1.326 1.132-2.829 1.418-4.53.046-.278.173-.787.202-1.085H19c-.028.77-.233 1.988-.717 2.985z" fill="#FFF" fill-rule="evenodd"/></svg>