<svg width="25" height="50" viewBox="0 0 25 50" xmlns="http://www.w3.org/2000/svg"><title>B2B01946-A1B7-47EB-8417-3AB1886DB841</title><defs><filter x="-50%" y="-50%" width="200%" height="200%" filterUnits="objectBoundingBox" id="a"><feOffset in="SourceAlpha" result="shadowOffsetOuter1"/><feGaussianBlur stdDeviation="2.5" in="shadowOffsetOuter1" result="shadowBlurOuter1"/><feColorMatrix values="0 0 0 0 0.596078431 0 0 0 0 0.850980392 0 0 0 0 0.937254902 0 0 0 1 0" in="shadowBlurOuter1" result="shadowMatrixOuter1"/><feMerge><feMergeNode in="shadowMatrixOuter1"/><feMergeNode in="SourceGraphic"/></feMerge></filter></defs><g fill="#FFF" fill-rule="evenodd"><path d="M12.5 5a7.5 7.5 0 1 0 .001 15.001A7.5 7.5 0 0 0 12.5 5zm.676 10.939c-.016.596-.458.964-1.03.947-.55-.017-.982-.408-.965-1.008.017-.596.472-.974 1.021-.957.576.017.994.422.974 1.018zm1.63-4.263c-.14.198-.454.452-.85.76l-.438.302a1.161 1.161 0 0 0-.419.579c-.037.117-.063.422-.07.626-.003.04-.027.13-.15.13h-1.31c-.137 0-.154-.08-.15-.12.02-.556.1-1.014.331-1.383.311-.495 1.189-1.018 1.189-1.018.134-.1.237-.207.318-.324.147-.201.268-.426.268-.667 0-.278-.067-.542-.245-.763-.207-.258-.432-.382-.864-.382-.425 0-.673.215-.85.496-.178.281-.147.613-.147.914H9.788c0-1.139.298-1.865.927-2.294.426-.29.968-.418 1.6-.418.831 0 1.49.154 2.073.596.54.408.824.984.824 1.761 0 .479-.167.88-.405 1.205z"/><path d="M7.5 0a7.5 7.5 0 1 0 .001 15.001A7.5 7.5 0 0 0 7.5 0zm.676 10.939c-.016.596-.458.964-1.03.947-.55-.017-.982-.408-.965-1.008.017-.596.472-.974 1.021-.957.576.017.994.422.974 1.018zm1.63-4.263c-.14.198-.454.452-.85.76l-.438.302a1.161 1.161 0 0 0-.419.579c-.037.117-.063.422-.07.626-.003.04-.027.13-.15.13h-1.31c-.137 0-.154-.08-.15-.12.02-.556.1-1.014.331-1.383.311-.495 1.189-1.018 1.189-1.018.134-.1.237-.207.318-.324.147-.201.268-.426.268-.667 0-.278-.067-.542-.245-.763-.207-.258-.432-.382-.864-.382-.425 0-.673.215-.85.496-.178.281-.147.613-.147.914H4.788c0-1.138.298-1.865.927-2.294.426-.29.968-.418 1.6-.418.831 0 1.49.154 2.073.596.54.408.824.984.824 1.761 0 .479-.167.88-.405 1.205z" filter="url(#a)" transform="translate(5 30)"/></g></svg>