<?xml version="1.0" encoding="UTF-8"?>
<svg width="13px" height="14px" viewBox="0 0 13 14" version="1.1" xmlns="http://www.w3.org/2000/svg" xmlns:xlink="http://www.w3.org/1999/xlink">
    <!-- Generator: sketchtool 40.3 (33839) - http://www.bohemiancoding.com/sketch -->
    <title>97C60D8C-4250-418B-9EF4-887F8063E453</title>
    <desc>Created with sketchtool.</desc>
    <defs></defs>
    <g id="UI-Kit" stroke="none" stroke-width="1" fill="none" fill-rule="evenodd">
        <g id="Icon-Sprite" transform="translate(-205.000000, -66.000000)" fill="#3D454C">
            <g id="Group-22" transform="translate(205.000000, 66.000000)">
                <path d="M4,3.5 L4,1.25 C4,1.18229133 3.97526066,1.12369816 3.92578125,1.07421875 C3.87630184,1.02473934 3.81770867,1 3.75,1 L3.25,1 C3.18229133,1 3.12369816,1.02473934 3.07421875,1.07421875 C3.02473934,1.12369816 3,1.18229133 3,1.25 L3,3.5 C3,3.56770867 3.02473934,3.62630184 3.07421875,3.67578125 C3.12369816,3.72526066 3.18229133,3.75 3.25,3.75 L3.75,3.75 C3.81770867,3.75 3.87630184,3.72526066 3.92578125,3.67578125 C3.97526066,3.62630184 4,3.56770867 4,3.5 L4,3.5 Z M10,3.5 L10,1.25 C10,1.18229133 9.97526066,1.12369816 9.92578125,1.07421875 C9.87630184,1.02473934 9.81770867,1 9.75,1 L9.25,1 C9.18229133,1 9.12369816,1.02473934 9.07421875,1.07421875 C9.02473934,1.12369816 9,1.18229133 9,1.25 L9,3.5 C9,3.56770867 9.02473934,3.62630184 9.07421875,3.67578125 C9.12369816,3.72526066 9.18229133,3.75 9.25,3.75 L9.75,3.75 C9.81770867,3.75 9.87630184,3.72526066 9.92578125,3.67578125 C9.97526066,3.62630184 10,3.56770867 10,3.5 L10,3.5 Z M13,3 L13,13 C13,13.2708347 12.9010427,13.5052073 12.703125,13.703125 C12.5052073,13.9010427 12.2708347,14 12,14 L1,14 C0.729165312,14 0.494792656,13.9010427 0.296875,13.703125 C0.0989573437,13.5052073 0,13.2708347 0,13 L0,3 C0,2.72916531 0.0989573437,2.49479266 0.296875,2.296875 C0.494792656,2.09895734 0.729165312,2 1,2 L2,2 L2,1.25 C2,0.906248281 2.12239461,0.611980391 2.3671875,0.3671875 C2.61198039,0.122394609 2.90624828,0 3.25,0 L3.75,0 C4.09375172,0 4.38801961,0.122394609 4.6328125,0.3671875 C4.87760539,0.611980391 5,0.906248281 5,1.25 L5,2 L8,2 L8,1.25 C8,0.906248281 8.12239461,0.611980391 8.3671875,0.3671875 C8.61198039,0.122394609 8.90624828,0 9.25,0 L9.75,0 C10.0937517,0 10.3880196,0.122394609 10.6328125,0.3671875 C10.8776054,0.611980391 11,0.906248281 11,1.25 L11,2 L12,2 C12.2708347,2 12.5052073,2.09895734 12.703125,2.296875 C12.9010427,2.49479266 13,2.72916531 13,3 Z M1,5 L12,5 L12,13 L1,13 L1,5 Z" id="Combined-Shape"></path>
            </g>
        </g>
    </g>
</svg>