<?xml version="1.0" encoding="UTF-8"?>
<svg width="16px" height="16px" viewBox="0 0 16 16" version="1.1" xmlns="http://www.w3.org/2000/svg" xmlns:xlink="http://www.w3.org/1999/xlink">
    <!-- Generator: sketchtool 40.3 (33839) - http://www.bohemiancoding.com/sketch -->
    <title>4F4C2315-FA19-4D43-B930-68B6B02E9723</title>
    <desc>Created with sketchtool.</desc>
    <defs>
        <rect id="path-1" x="0" y="0" width="620" height="30"></rect>
        <filter x="-50%" y="-50%" width="200%" height="200%" filterUnits="objectBoundingBox" id="filter-2">
            <feOffset dx="0" dy="1" in="SourceAlpha" result="shadowOffsetInner1"></feOffset>
            <feComposite in="shadowOffsetInner1" in2="SourceAlpha" operator="arithmetic" k2="-1" k3="1" result="shadowInnerInner1"></feComposite>
            <feColorMatrix values="0 0 0 0 0.32   0 0 0 0 0.36   0 0 0 0 0.4  0 0 0 1 0" type="matrix" in="shadowInnerInner1"></feColorMatrix>
        </filter>
    </defs>
    <g id="UI-Kit" stroke="none" stroke-width="1" fill="none" fill-rule="evenodd">
        <g id="UI-Elements" transform="translate(-50.000000, -1511.000000)">
            <g id="Lower-Line-Copy" transform="translate(30.000000, 1503.000000)">
                <g id="Rectangle-3-Copy-16">
                    <use fill="#292E33" fill-rule="evenodd" xlink:href="#path-1"></use>
                    <use fill="black" fill-opacity="1" filter="url(#filter-2)" xlink:href="#path-1"></use>
                </g>
                <rect id="Rectangle-3" fill="#515C66" x="14" y="4" width="47" height="22" rx="3"></rect>
                <path d="M28.8076923,21.5384615 C29.3615385,21.5384615 29.3615385,21.5423077 29.6269231,21.7384615 C29.8923077,21.9346154 32.9230769,24 32.9230769,24 L32.9230769,21.5384615 L33.0653846,21.5384615 C34.6884615,21.5384615 36,20.3153846 36,18.7923077 L36,10.7576923 C36,9.23461538 34.6846154,8 33.0653846,8 L22.9346154,8 C21.3153846,8 20,9.23461538 20,10.7576923 L20,18.7923077 C20,20.3153846 21.3153846,21.5384615 22.9346154,21.5384615 L28.8076923,21.5384615 Z" id="Shape-Copy" fill="#9EE1F8"></path>
            </g>
            <path d="M79.3168364,1539.59638 L79.3074621,1539.59363 L79.3074621,1537.21429 C79.3074621,1536.1492 78.4253606,1535.28571 77.3373128,1535.28571 C76.2492651,1535.28571 75.3671636,1536.1492 75.3671636,1537.21429 L75.3671636,1537.8258 L75.3671636,1535.92857 C75.3671636,1534.86349 74.4850621,1534 73.3970143,1534 C72.3089666,1534 71.4268651,1534.86349 71.4268651,1535.92857 L71.4268651,1526.92857 C71.4268651,1525.86349 70.5447636,1525 69.4567158,1525 C68.368668,1525 67.4865666,1525.86349 67.4865666,1526.92857 L67.4865666,1542.46944 L67.3372805,1542.75062 L64.7927158,1538.5 L63.6998083,1536.71813 C62.8974322,1535.48114 60.3783994,1536.30889 61.1425546,1538.2624 C61.1425546,1538.2624 63.589086,1544.98257 66.5781964,1548.39113 C66.5781964,1548.39113 68.6176949,1550.55807 68.7859457,1551.98521 L68.7414822,1551.67775 L68.7769222,1551.78777 L79.2934278,1551.96829 L79.2934083,1551.98521 C79.2943955,1551.97964 79.2953933,1551.97402 79.2964019,1551.96834 L79.4635134,1551.97121 L79.6343907,1550.31524 C79.9455932,1548.96005 80.4310433,1547.21999 81.0787576,1545.97463 C82.4589128,1543.32117 82.8407277,1539.84691 82.8407277,1539.84691 C82.8407277,1538.78183 82.3656591,1537.85714 81.2776113,1537.85714 C80.2548242,1537.85714 79.4140191,1538.62015 79.3168364,1539.59638 Z M71.4268651,1536.60478 L71.4268651,1535.92857 Z" id="Combined-Shape-Copy-14" stroke="#141719" fill="#FFFFFF"></path>
        </g>
    </g>
</svg>