<?xml version="1.0" encoding="UTF-8"?>
<svg width="29px" height="25px" viewBox="0 0 29 25" version="1.1" xmlns="http://www.w3.org/2000/svg" xmlns:xlink="http://www.w3.org/1999/xlink">
    <!-- Generator: sketchtool 40.3 (33839) - http://www.bohemiancoding.com/sketch -->
    <title>166DBA65-203F-4102-BE98-88BAD9D9C87B</title>
    <desc>Created with sketchtool.</desc>
    <defs></defs>
    <g id="UI-Kit" stroke="none" stroke-width="1" fill="none" fill-rule="evenodd">
        <g id="UI-Elements" transform="translate(-1082.000000, -965.000000)">
            <g id="Profile-Edit" transform="translate(1076.000000, 957.000000)">
                <rect id="Rectangle-9" fill="#98D9EF" x="0" y="0" width="40" height="40" rx="3"></rect>
                <g id="Group-15" transform="translate(6.000000, 8.000000)" fill="#3D454C">
                    <path d="M17.1742188,9.5 C17.1742188,8.31744792 17.9065104,7.38229167 19,6.7390625 C18.8020833,6.08098958 18.5398437,5.44270833 18.2182292,4.84895833 C16.9861979,5.17057292 15.9916667,4.690625 15.1505208,3.84947917 C14.3143229,3.01328125 14.0570312,2.01380208 14.3786458,0.781770833 C13.7848958,0.46015625 13.1515625,0.197916667 12.4885417,0 C11.8453125,1.0984375 10.6875,1.82578125 9.5,1.82578125 C8.31744792,1.82578125 7.1546875,1.0984375 6.51145833,0 C5.8484375,0.197916667 5.21510417,0.46015625 4.62135417,0.781770833 C4.94296875,2.01380208 4.68567708,3.00833333 3.84947917,3.84947917 C3.01328125,4.68567708 2.01380208,5.17057292 0.78671875,4.84895833 C0.46015625,5.44270833 0.197916667,6.07604167 0,6.7390625 C1.0984375,7.38229167 1.83072917,8.31744792 1.83072917,9.5 C1.83072917,10.6825521 1.0984375,11.8453125 0,12.4885417 C0.197916667,13.1515625 0.46015625,13.7848958 0.781770833,14.3786458 C2.01380208,14.0570312 3.00833333,14.3143229 3.84453125,15.1505208 C4.68567708,15.9867187 4.93802083,16.9861979 4.61640625,18.2182292 C5.21510417,18.5398437 5.84348958,18.8020833 6.50651042,19 C7.14973958,17.9015625 8.3125,17.1742188 9.49505208,17.1742188 C10.6776042,17.1742188 11.8403646,17.9015625 12.4835938,19 C13.1466146,18.8020833 13.7799479,18.5398437 14.3736979,18.2182292 C14.0520833,16.9861979 14.309375,15.9916667 15.1455729,15.1505208 C15.9817708,14.3143229 16.98125,13.8294271 18.2132813,14.1510417 C18.5348958,13.5523438 18.7971354,12.9190104 18.9950521,12.2609375 C17.9015625,11.6177083 17.1742188,10.6825521 17.1742188,9.5 L17.1742188,9.5 Z M9.5,14.3638021 C6.81822917,14.3638021 4.63619792,12.1867188 4.63619792,9.5 C4.63619792,6.81328125 6.81328125,4.63619792 9.5,4.63619792 C12.1867188,4.63619792 14.3638021,6.81328125 14.3638021,9.5 C14.3638021,12.1867188 12.1867188,14.3638021 9.5,14.3638021 L9.5,14.3638021 Z" id="Shape"></path>
                    <path d="M27.846875,19 C27.846875,18.253125 28.309375,17.6625 29,17.25625 C28.875,16.840625 28.709375,16.4375 28.50625,16.0625 C27.728125,16.265625 27.1,15.9625 26.56875,15.43125 C26.040625,14.903125 25.878125,14.271875 26.08125,13.49375 C25.70625,13.290625 25.30625,13.125 24.8875,13 C24.48125,13.69375 23.75,14.153125 23,14.153125 C22.253125,14.153125 21.51875,13.69375 21.1125,13 C20.69375,13.125 20.29375,13.290625 19.91875,13.49375 C20.121875,14.271875 19.959375,14.9 19.43125,15.43125 C18.903125,15.959375 18.271875,16.265625 17.496875,16.0625 C17.290625,16.4375 17.125,16.8375 17,17.25625 C17.69375,17.6625 18.15625,18.253125 18.15625,19 C18.15625,19.746875 17.69375,20.48125 17,20.8875 C17.125,21.30625 17.290625,21.70625 17.49375,22.08125 C18.271875,21.878125 18.9,22.040625 19.428125,22.56875 C19.959375,23.096875 20.11875,23.728125 19.915625,24.50625 C20.29375,24.709375 20.690625,24.875 21.109375,25 C21.515625,24.30625 22.25,23.846875 22.996875,23.846875 C23.74375,23.846875 24.478125,24.30625 24.884375,25 C25.303125,24.875 25.703125,24.709375 26.078125,24.50625 C25.875,23.728125 26.0375,23.1 26.565625,22.56875 C27.09375,22.040625 27.725,21.734375 28.503125,21.9375 C28.70625,21.559375 28.871875,21.159375 28.996875,20.74375 C28.30625,20.3375 27.846875,19.746875 27.846875,19 Z M23,22.071875 C21.30625,22.071875 19.928125,20.696875 19.928125,19 C19.928125,17.303125 21.303125,15.928125 23,15.928125 C24.696875,15.928125 26.071875,17.303125 26.071875,19 C26.071875,20.696875 24.696875,22.071875 23,22.071875 Z" id="Shape"></path>
                </g>
            </g>
        </g>
    </g>
</svg>