<?xml version="1.0" encoding="UTF-8"?>
<svg width="16px" height="16px" viewBox="0 0 16 16" version="1.1" xmlns="http://www.w3.org/2000/svg" xmlns:xlink="http://www.w3.org/1999/xlink">
    <!-- Generator: sketchtool 40.3 (33839) - http://www.bohemiancoding.com/sketch -->
    <title>73FFAC96-88AE-4173-865C-9C29349D7D8F</title>
    <desc>Created with sketchtool.</desc>
    <defs>
        <rect id="path-1" x="0" y="0" width="620" height="30"></rect>
        <filter x="-50%" y="-50%" width="200%" height="200%" filterUnits="objectBoundingBox" id="filter-2">
            <feOffset dx="0" dy="1" in="SourceAlpha" result="shadowOffsetInner1"></feOffset>
            <feComposite in="shadowOffsetInner1" in2="SourceAlpha" operator="arithmetic" k2="-1" k3="1" result="shadowInnerInner1"></feComposite>
            <feColorMatrix values="0 0 0 0 0.32   0 0 0 0 0.36   0 0 0 0 0.4  0 0 0 1 0" type="matrix" in="shadowInnerInner1"></feColorMatrix>
        </filter>
    </defs>
    <g id="UI-Kit" stroke="none" stroke-width="1" fill="none" fill-rule="evenodd">
        <g id="UI-Elements" transform="translate(-539.000000, -1510.000000)">
            <g id="Lower-Line-Copy" transform="translate(30.000000, 1503.000000)">
                <g id="Rectangle-3-Copy-16">
                    <use fill="#292E33" fill-rule="evenodd" xlink:href="#path-1"></use>
                    <use fill="black" fill-opacity="1" filter="url(#filter-2)" xlink:href="#path-1"></use>
                </g>
                <rect id="Rectangle-3-Copy" fill="#515C66" x="503" y="4" width="47" height="22" rx="3"></rect>
                <g id="Group-2" transform="translate(509.000000, 7.000000)" fill="#9EE1F8">
                    <path d="M15.0083333,8.1375 C15.5833333,7.95 16,7.40833333 16,6.77083333 C16,5.97916667 15.3583333,5.33333333 14.5625,5.33333333 L10.2875,5.33333333 C10.3708333,4.29166667 10.7041667,3.1 10.3333333,1.69583333 C10.0208333,0.5125 8.69166667,-0.375 8.15,0.1625 C7.94166667,0.366666667 8.00416667,0.795833333 8.00416667,1.57083333 C8.00416667,3.35416667 7.2625,5.15833333 6.34583333,6.1 C5.95416667,6.50416667 5.29583333,6.64166667 4.67083333,6.66666667 L4.67083333,6 L0,6 L0,16 L4.66666667,16 L4.66666667,14.6666667 C5.525,14.6458333 6.85833333,14.8833333 7.825,14.9416667 C9.99166667,15.0708333 12.075,14.8416667 13.0875,14.6041667 C14.1,14.3666667 14.5458333,14.0625 14.5458333,13.3291667 C14.5458333,13.0625 14.4666667,12.8166667 14.3333333,12.6083333 C14.825,12.4125 15.1708333,11.9333333 15.1708333,11.3708333 C15.1708333,11.0708333 15.0708333,10.7958333 14.9041667,10.5708333 C15.4,10.3791667 15.7541667,9.89583333 15.7541667,9.32916667 C15.75,8.80833333 15.4458333,8.35416667 15.0083333,8.1375 L15.0083333,8.1375 Z" id="Combined-Shape"></path>
                </g>
            </g>
            <path d="M565.316836,1539.59638 L565.307462,1539.59363 L565.307462,1537.21429 C565.307462,1536.1492 564.425361,1535.28571 563.337313,1535.28571 C562.249265,1535.28571 561.367164,1536.1492 561.367164,1537.21429 L561.367164,1537.8258 L561.367164,1535.92857 C561.367164,1534.86349 560.485062,1534 559.397014,1534 C558.308967,1534 557.426865,1534.86349 557.426865,1535.92857 L557.426865,1526.92857 C557.426865,1525.86349 556.544764,1525 555.456716,1525 C554.368668,1525 553.486567,1525.86349 553.486567,1526.92857 L553.486567,1542.46944 L553.337281,1542.75062 L550.792716,1538.5 L549.699808,1536.71813 C548.897432,1535.48114 546.378399,1536.30889 547.142555,1538.2624 C547.142555,1538.2624 549.589086,1544.98257 552.578196,1548.39113 C552.578196,1548.39113 554.617695,1550.55807 554.785946,1551.98521 L554.741482,1551.67775 L554.776922,1551.78777 L565.293428,1551.96829 L565.293408,1551.98521 C565.294395,1551.97964 565.295393,1551.97402 565.296402,1551.96834 L565.463513,1551.97121 L565.634391,1550.31524 C565.945593,1548.96005 566.431043,1547.21999 567.078758,1545.97463 C568.458913,1543.32117 568.840728,1539.84691 568.840728,1539.84691 C568.840728,1538.78183 568.365659,1537.85714 567.277611,1537.85714 C566.254824,1537.85714 565.414019,1538.62015 565.316836,1539.59638 Z M557.426865,1536.60478 L557.426865,1535.92857 Z" id="Combined-Shape-Copy-13" stroke="#141719" fill="#FFFFFF"></path>
        </g>
    </g>
</svg>