<svg width="28" height="58" viewBox="0 0 28 58" xmlns="http://www.w3.org/2000/svg" xmlns:xlink="http://www.w3.org/1999/xlink"><title>09EFC3B3-EF93-4AB9-A30C-006131742D4B</title><defs><path d="M20.173 44.406a4.534 4.534 0 0 0-1.047-.996 5.136 5.136 0 0 0-1.468-.688c-.225-.06-.621-.157-1.142-.287-.373-.092-.722-.187-1.116-.284v-4.72c.394.107.667.277.96.466.624.404 1.016 1.094 1.13 2.032h3.027c-.029-.804-.204-1.463-.525-2.055a4.99 4.99 0 0 0-1.432-1.65 6.522 6.522 0 0 0-2.117-1.002 7.43 7.43 0 0 0-1.043-.232V34h-2.8v.98c-.306.047-.663.11-.981.19a6.388 6.388 0 0 0-2.01.883 4.662 4.662 0 0 0-1.427 1.5c-.36.605-.539 1.319-.539 2.144 0 .428.062.848.182 1.26.12.413.326.802.615 1.17.289.366.678.698 1.167.996.49.298 1.081.539 1.82.722.405.105.823.202 1.173.294v5.338c-.481-.13-.958-.33-1.342-.602a2.831 2.831 0 0 1-.928-1.066c-.209-.412-.31-.916-.324-1.452H7c.03.938.23 1.763.598 2.472a5.17 5.17 0 0 0 1.54 1.81c.642.475 1.374.82 2.24 1.05.389.102.828.176 1.222.233V53h2.8v-1.042c.438-.048.83-.12 1.248-.218a6.986 6.986 0 0 0 2.201-.905 4.886 4.886 0 0 0 1.558-1.593c.393-.649.593-1.432.593-2.349a4.21 4.21 0 0 0-.202-1.283 4.057 4.057 0 0 0-.625-1.204zm-8.975-3.69c-.377-.328-.555-.782-.555-1.363 0-.413.106-.756.307-1.031.2-.275.433-.493.738-.654.27-.142.606-.248.912-.318v4.083c-.525-.167-1.046-.406-1.402-.716zm5.978 8.194c-.289.23-.689.416-1.154.561-.197.062-.36.11-.622.145v-4.782c.437.117.795.238 1.152.363.352.123.689.332.986.63.297.298.45.76.45 1.387 0 .306-.058.607-.186.905a2.043 2.043 0 0 1-.626.79z" id="b"/><filter x="-50%" y="-50%" width="200%" height="200%" filterUnits="objectBoundingBox" id="a"><feOffset in="SourceAlpha" result="shadowOffsetOuter1"/><feGaussianBlur stdDeviation="2.5" in="shadowOffsetOuter1" result="shadowBlurOuter1"/><feColorMatrix values="0 0 0 0 0.596078431 0 0 0 0 0.850980392 0 0 0 0 0.937254902 0 0 0 1 0" in="shadowBlurOuter1"/></filter></defs><g fill="none" fill-rule="evenodd"><path d="M20.173 15.406a4.534 4.534 0 0 0-1.047-.996 5.136 5.136 0 0 0-1.468-.688c-.225-.06-.621-.157-1.142-.287-.373-.092-.722-.187-1.116-.284v-4.72c.394.107.667.277.96.466.624.404 1.016 1.094 1.13 2.032h3.027c-.029-.804-.204-1.463-.525-2.055a4.99 4.99 0 0 0-1.432-1.65 6.522 6.522 0 0 0-2.117-1.002A7.43 7.43 0 0 0 15.4 5.99V5h-2.8v.98c-.306.047-.663.11-.981.19a6.388 6.388 0 0 0-2.01.883 4.662 4.662 0 0 0-1.427 1.5c-.36.605-.539 1.319-.539 2.144 0 .428.062.848.182 1.26.12.413.326.802.615 1.17.289.366.678.698 1.167.996.49.298 1.081.539 1.82.722.405.105.823.202 1.173.294v5.338c-.481-.13-.958-.33-1.342-.602a2.831 2.831 0 0 1-.928-1.066c-.209-.412-.31-.916-.324-1.452H7c.03.938.23 1.763.598 2.472a5.17 5.17 0 0 0 1.54 1.81c.642.475 1.374.82 2.24 1.05.389.102.828.176 1.222.233V24h2.8v-1.042c.438-.048.83-.12 1.248-.218a6.986 6.986 0 0 0 2.201-.905 4.886 4.886 0 0 0 1.558-1.593c.393-.649.593-1.432.593-2.349a4.21 4.21 0 0 0-.202-1.283 4.057 4.057 0 0 0-.625-1.204zM12.6 12.433c-.525-.167-1.046-.406-1.402-.716-.377-.329-.555-.783-.555-1.364 0-.413.106-.756.307-1.031.2-.275.433-.493.738-.654.27-.142.606-.248.912-.318v4.083zm5.202 6.686a2.043 2.043 0 0 1-.626.79c-.289.23-.689.417-1.154.562-.197.062-.36.11-.622.145v-4.782c.437.117.795.238 1.152.363.352.123.689.332.986.63.297.298.45.76.45 1.387 0 .306-.058.607-.186.905z" fill="#FFF"/><g><use fill="#000" filter="url(#a)" xlink:href="#b"/><use fill="#FFF" xlink:href="#b"/></g></g></svg>