<svg width="29" height="58" viewBox="0 0 29 58" xmlns="http://www.w3.org/2000/svg"><title>21790B67-80E0-4E46-BBC6-4CCEE5273742</title><g fill="none" fill-rule="evenodd"><g fill="#FFF"><path d="M15.665 6.173c0-.025.005-.05.005-.08 0-.608-.538-1.093-1.195-1.093-.656 0-1.174.485-1.174 1.093 0 .03 0 .055.005.08-2.428.37-5.034 2.018-5.034 6.848C8.272 18.65 6.875 19.417 5 21h19c-1.865-1.588-3.321-2.359-3.321-7.99 0-4.828-2.591-6.471-5.014-6.837zM17 22h-5c.138 1.143 1.163 2 2.485 2 1.323 0 2.372-.857 2.515-2z"/></g><g fill="#FFF"><path d="M15.665 35.173c0-.025.005-.05.005-.08 0-.608-.538-1.093-1.195-1.093-.656 0-1.174.485-1.174 1.093 0 .03 0 .055.005.08-2.428.37-5.034 2.018-5.034 6.848C8.272 47.65 6.875 48.417 5 50h19c-1.865-1.588-3.321-2.359-3.321-7.99 0-4.828-2.591-6.471-5.014-6.837zM17 51h-5c.138 1.143 1.163 2 2.485 2 1.323 0 2.372-.857 2.515-2z"/></g></g></svg>