<svg width="29" height="30" viewBox="0 0 29 30" xmlns="http://www.w3.org/2000/svg"><title>20A1CFB2-5603-4CB2-9FD5-2B96839B620C</title><g fill="none" fill-rule="evenodd"><path d="M0 0h29v30H0z"/><path d="M24.023 21.963l-4.056-4.25a7.959 7.959 0 0 0 1.005-3.853c0-4.333-3.406-7.86-7.586-7.86S5.8 9.527 5.8 13.86s3.405 7.86 7.586 7.86a7.28 7.28 0 0 0 3.831-1.108l4.037 4.235c.09.094.22.153.349.153.13 0 .258-.054.35-.153l2.07-2.167a.52.52 0 0 0 0-.717zM13.386 9.062c2.554 0 4.63 2.152 4.63 4.798 0 2.647-2.076 4.798-4.63 4.798s-4.63-2.151-4.63-4.798c0-2.646 2.076-4.798 4.63-4.798z" fill="#3D454C"/></g></svg>