<?xml version="1.0" encoding="UTF-8"?>
<svg width="14px" height="20px" viewBox="0 0 14 20" version="1.1" xmlns="http://www.w3.org/2000/svg" xmlns:xlink="http://www.w3.org/1999/xlink">
    <!-- Generator: sketchtool 40.3 (33839) - http://www.bohemiancoding.com/sketch -->
    <title>3329181F-77D6-4BE7-A0B4-6550D6F5DA64</title>
    <desc>Created with sketchtool.</desc>
    <defs>
        <rect id="path-1" x="0" y="30" width="1280" height="50"></rect>
        <filter x="-50%" y="-50%" width="200%" height="200%" filterUnits="objectBoundingBox" id="filter-2">
            <feOffset dx="0" dy="0" in="SourceAlpha" result="shadowOffsetOuter1"></feOffset>
            <feGaussianBlur stdDeviation="5" in="shadowOffsetOuter1" result="shadowBlurOuter1"></feGaussianBlur>
            <feColorMatrix values="0 0 0 0 0.596078431   0 0 0 0 0.850980392   0 0 0 0 0.937254902  0 0 0 0.5 0" type="matrix" in="shadowBlurOuter1"></feColorMatrix>
        </filter>
    </defs>
    <g id="UI-Kit" stroke="none" stroke-width="1" fill="none" fill-rule="evenodd">
        <g id="UI-Elements" transform="translate(-881.000000, -171.000000)">
            <g id="Header" transform="translate(30.000000, 126.000000)">
                <g id="Rectangle-3-Copy">
                    <use fill="black" fill-opacity="1" filter="url(#filter-2)" xlink:href="#path-1"></use>
                    <use fill="#292E33" fill-rule="evenodd" xlink:href="#path-1"></use>
                </g>
                <g id="social-usd" transform="translate(851.000000, 45.000000)" fill="#FFFFFF">
                    <path d="M13.7981813,12.1096429 C13.661725,11.6820982 13.45295,11.2810268 13.1725125,10.9064286 C12.89155,10.5322321 12.5426875,10.1999107 12.125575,9.90950893 C11.7082438,9.61941964 11.2190313,9.3903125 10.6576313,9.22200893 C10.432625,9.16116071 10.0368625,9.06549107 9.51558125,8.93549107 C9.14300625,8.84290179 8.79370625,8.74799107 8.39995625,8.65125 L8.39995625,3.93147321 C8.79370625,4.0384375 9.06723125,4.20834821 9.35921875,4.39709821 C9.983925,4.80066964 10.3756188,5.49107143 10.490375,6.42857143 L13.5167375,6.42857143 C13.488125,5.625 13.3133,4.96607143 12.9919125,4.37410714 C12.63885,3.72486607 12.1616688,3.16767857 11.559975,2.72428571 C10.9584125,2.28133929 10.2376313,1.94348214 9.44348125,1.72183036 C9.09855625,1.62571429 8.79375,1.54486607 8.4,1.49044643 L8.4,0 L5.6,0 L5.6,1.48066964 C5.29375,1.52727679 4.937275,1.58982143 4.6188625,1.67040179 C3.864525,1.86160714 3.2018875,2.15558036 2.60850625,2.55272321 C2.014775,2.95026786 1.54310625,3.45058036 1.18208125,4.05392857 C0.8211,4.65763393 0.64343125,5.37178571 0.64343125,6.19678571 C0.64343125,6.6246875 0.7049875,7.0446875 0.8253,7.45727679 C0.9457,7.86982143 1.1508875,8.259375 1.4396375,8.62607143 C1.72851875,8.99276786 2.11754375,9.32508929 2.60719375,9.62303571 C3.09645,9.92089286 3.6880375,10.1616071 4.42614375,10.3449554 C4.83245,10.4496429 5.24995625,10.5473661 5.59995625,10.6385268 L5.59995625,15.9771875 C5.11870625,15.846875 4.6423125,15.646875 4.25779375,15.3754464 C3.85660625,15.0929911 3.55490625,14.7525446 3.33038125,14.3091964 C3.1213,13.8971875 3.0209375,13.3928571 3.006325,12.8571429 L0,12.8571429 C0.03040625,13.7946429 0.2296875,14.6202679 0.59815,15.3290625 C0.98310625,16.0703125 1.49646875,16.6665625 2.138325,17.1398661 C2.7797875,17.6136607 3.51176875,17.9593304 4.3782375,18.1885714 C4.76695625,18.2914286 5.20625,18.3653571 5.6,18.4220536 L5.6,20 L8.4,20 L8.4,18.4580357 C8.8375,18.4103125 9.22936875,18.3379464 9.64805625,18.2402232 C10.466225,18.0494643 11.207525,17.7475446 11.8493813,17.3350446 C12.4908437,16.9225446 13.01405,16.3918304 13.4073625,15.7421429 C13.8002375,15.0929911 13.9999563,14.3097768 13.9999563,13.3930804 C14,12.9654911 13.9342875,12.5375446 13.7981813,12.1096429 L13.7981813,12.1096429 Z M5.6,7.93299107 C5.075,7.76589286 4.55385,7.52727679 4.19776875,7.2165625 C3.8206,6.88821429 3.643325,6.43379464 3.643325,5.85294643 C3.643325,5.44040179 3.7489375,5.09669643 3.94975,4.82160714 C4.150125,4.5465625 4.3834,4.32883929 4.68825,4.1684375 C4.958625,4.02607143 5.29375,3.92 5.6,3.84977679 L5.6,7.93299107 L5.6,7.93299107 Z M10.8019625,14.6192411 C10.6733812,14.9171429 10.4651312,15.1806696 10.1762062,15.4099107 C9.88736875,15.6390625 9.48740625,15.8263393 9.0222125,15.9713839 C8.8253375,16.0329018 8.66245625,16.0804911 8.39995625,16.1158482 L8.39995625,11.3341518 C8.83745625,11.4512946 9.19533125,11.5721875 9.55171875,11.6971429 C9.90443125,11.8196429 10.2406937,12.0294196 10.5377125,12.3273214 C10.8345562,12.6253571 10.9887312,13.0875893 10.9887312,13.7139286 C10.988775,14.0197321 10.9302375,14.3212946 10.8019625,14.6192411 L10.8019625,14.6192411 Z" id="Shape"></path>
                </g>
            </g>
        </g>
    </g>
</svg>