<svg width="22" height="67" viewBox="0 0 22 67" xmlns="http://www.w3.org/2000/svg"><title>93AFCEB4-11E9-498A-8029-56FBAE91BCF0</title><defs><filter x="-50%" y="-50%" width="200%" height="200%" filterUnits="objectBoundingBox" id="a"><feOffset in="SourceAlpha" result="shadowOffsetOuter1"/><feGaussianBlur stdDeviation="2.5" in="shadowOffsetOuter1" result="shadowBlurOuter1"/><feColorMatrix values="0 0 0 0 0.596078431 0 0 0 0 0.850980392 0 0 0 0 0.937254902 0 0 0 1 0" in="shadowBlurOuter1" result="shadowMatrixOuter1"/><feMerge><feMergeNode in="shadowMatrixOuter1"/><feMergeNode in="SourceGraphic"/></feMerge></filter></defs><g fill="none" fill-rule="evenodd"><path d="M10.385 5.379h.616c1.83 0 2.048.006 2.77.039.67.03 1.032.142 1.274.236.32.124.548.273.788.513s.388.469.513.789c.094.241.206.604.236 1.272.033.723.04.94.04 2.77s-.007 2.048-.04 2.77c-.03.67-.142 1.032-.236 1.273a2.12 2.12 0 0 1-.513.788 2.12 2.12 0 0 1-.788.513c-.242.094-.605.206-1.273.236-.723.033-.94.04-2.771.04s-2.048-.007-2.771-.04c-.669-.03-1.032-.142-1.274-.236a2.124 2.124 0 0 1-.788-.513 2.125 2.125 0 0 1-.513-.788c-.094-.242-.206-.604-.236-1.273-.033-.723-.04-.94-.04-2.771s.007-2.047.04-2.77c.03-.669.142-1.032.236-1.273.124-.32.273-.549.513-.789s.468-.389.788-.513c.242-.094.605-.206 1.274-.237.632-.028.877-.037 2.155-.038v.002zm4.276 1.138a.823.823 0 1 0 0 1.646.823.823 0 0 0 0-1.646zm-3.66.962a3.522 3.522 0 1 0 0 7.043 3.522 3.522 0 0 0 0-7.043z" fill="#98D9EF"/><path d="M11 8.714a2.286 2.286 0 1 1 0 4.572 2.286 2.286 0 0 1 0-4.572z" fill="#98D9EF"/><g fill="#FFF"><path d="M10.385 27.379h.616c1.83 0 2.048.006 2.77.039.67.03 1.032.142 1.274.236.32.124.548.273.788.513s.388.469.513.789c.094.241.206.604.236 1.272.033.723.04.94.04 2.77s-.007 2.048-.04 2.77c-.03.67-.142 1.032-.236 1.273a2.12 2.12 0 0 1-.513.788 2.12 2.12 0 0 1-.788.513c-.242.094-.605.206-1.273.236-.723.033-.94.04-2.771.04s-2.048-.007-2.771-.04c-.669-.03-1.032-.142-1.274-.236a2.124 2.124 0 0 1-.788-.513 2.125 2.125 0 0 1-.513-.788c-.094-.242-.206-.604-.236-1.273-.033-.723-.04-.94-.04-2.771s.007-2.047.04-2.77c.03-.669.142-1.032.236-1.273.124-.32.273-.549.513-.789s.468-.389.788-.513c.242-.094.605-.206 1.274-.237.632-.028.877-.037 2.155-.038v.002zm4.276 1.138a.823.823 0 1 0 0 1.646.823.823 0 0 0 0-1.646zm-3.66.962a3.522 3.522 0 1 0 0 7.043 3.522 3.522 0 0 0 0-7.043z"/><path d="M11 30.714a2.286 2.286 0 1 1 0 4.572 2.286 2.286 0 0 1 0-4.572z"/></g><g filter="url(#a)" transform="translate(5 49)"><path d="M5.385.379h.616c1.83 0 2.048.006 2.77.039.67.03 1.032.142 1.274.236.32.124.548.273.788.513s.388.469.513.789c.094.241.206.604.236 1.272.033.723.04.94.04 2.77s-.007 2.048-.04 2.77c-.03.67-.142 1.032-.236 1.273a2.12 2.12 0 0 1-.513.788 2.12 2.12 0 0 1-.788.513c-.242.094-.605.206-1.273.236-.723.033-.94.04-2.771.04s-2.048-.007-2.771-.04c-.669-.03-1.032-.142-1.274-.236a2.124 2.124 0 0 1-.788-.513 2.125 2.125 0 0 1-.513-.788C.56 9.799.449 9.437.419 8.768c-.033-.723-.04-.94-.04-2.771s.007-2.047.04-2.77c.03-.669.142-1.032.236-1.273.124-.32.273-.549.513-.789s.468-.389.788-.513C2.198.558 2.561.446 3.23.415c.632-.028.877-.037 2.155-.038v.002zm4.276 1.138a.823.823 0 1 0 0 1.646.823.823 0 0 0 0-1.646zm-3.66.962a3.522 3.522 0 1 0 0 7.043 3.522 3.522 0 0 0 0-7.043z" fill="#FFF"/><path d="M0 0h12v12H0z"/><path d="M6 3.714a2.286 2.286 0 1 1 0 4.572 2.286 2.286 0 0 1 0-4.572z" fill="#FFF"/></g></g></svg>