<svg width="21" height="67" viewBox="0 0 21 67" xmlns="http://www.w3.org/2000/svg"><title>4C795A66-3E6B-4394-A02D-5982F12566D0</title><defs><filter x="-50%" y="-50%" width="200%" height="200%" filterUnits="objectBoundingBox" id="a"><feOffset in="SourceAlpha" result="shadowOffsetOuter1"/><feGaussianBlur stdDeviation="2.5" in="shadowOffsetOuter1" result="shadowBlurOuter1"/><feColorMatrix values="0 0 0 0 0.596078431 0 0 0 0 0.850980392 0 0 0 0 0.937254902 0 0 0 1 0" in="shadowBlurOuter1" result="shadowMatrixOuter1"/><feMerge><feMergeNode in="shadowMatrixOuter1"/><feMergeNode in="SourceGraphic"/></feMerge></filter></defs><g fill="none" fill-rule="evenodd"><path d="M5.846 5L5 7.143v8.143h2.538V17h1.693l1.692-1.714h2.115l2.962-3V5H5.846zm4.654 6.429H9.23V7.973h1.27v3.456zm2.962 0h-1.27V7.973h1.27v3.456z" fill="#98D9EF"/><path d="M5.846 27L5 29.143v8.143h2.538V39h1.693l1.692-1.714h2.115l2.962-3V27H5.846zm4.654 6.429H9.23v-3.456h1.27v3.456zm2.962 0h-1.27v-3.456h1.27v3.456z" fill="#FFF"/><path d="M.846 0L0 2.143v8.143h2.538V12h1.693l1.692-1.714h2.115l2.962-3V0H.846zM5.5 6.429H4.23V2.973H5.5V6.43zm2.962 0h-1.27V2.973h1.27V6.43z" filter="url(#a)" transform="translate(5 49)" fill="#FFF"/></g></svg>