<svg width="25" height="67" viewBox="0 0 25 67" xmlns="http://www.w3.org/2000/svg"><title>BF12B038-6287-4835-9122-EC95E3D01519</title><defs><filter x="-50%" y="-50%" width="200%" height="200%" filterUnits="objectBoundingBox" id="a"><feOffset in="SourceAlpha" result="shadowOffsetOuter1"/><feGaussianBlur stdDeviation="2.5" in="shadowOffsetOuter1" result="shadowBlurOuter1"/><feColorMatrix values="0 0 0 0 0.596078431 0 0 0 0 0.850980392 0 0 0 0 0.937254902 0 0 0 1 0" in="shadowBlurOuter1" result="shadowMatrixOuter1"/><feMerge><feMergeNode in="shadowMatrixOuter1"/><feMergeNode in="SourceGraphic"/></feMerge></filter></defs><g fill="none" fill-rule="evenodd"><path d="M20 6.422a6.303 6.303 0 0 1-1.767.478 3.046 3.046 0 0 0 1.354-1.675c-.594.347-1.252.6-1.955.734A3.097 3.097 0 0 0 15.386 5c-1.7 0-3.077 1.356-3.077 3.028 0 .238.026.469.08.69a8.77 8.77 0 0 1-6.343-3.165 2.99 2.99 0 0 0-.417 1.522 3.02 3.02 0 0 0 1.373 2.522 3.044 3.044 0 0 1-1.398-.378v.037c0 1.469 1.061 2.69 2.47 2.969-.258.069-.532.106-.811.106a2.95 2.95 0 0 1-.579-.056 3.076 3.076 0 0 0 2.876 2.103 6.235 6.235 0 0 1-4.557 1.253A8.706 8.706 0 0 0 9.713 17c5.666 0 8.762-4.616 8.762-8.619 0-.131-.004-.262-.01-.39.6-.428 1.122-.96 1.535-1.57z" fill="#98D9EF"/><path d="M20 28.422a6.303 6.303 0 0 1-1.767.478 3.046 3.046 0 0 0 1.354-1.675c-.594.347-1.252.6-1.955.734A3.097 3.097 0 0 0 15.386 27c-1.7 0-3.077 1.356-3.077 3.028 0 .238.026.469.08.69a8.77 8.77 0 0 1-6.343-3.165 2.99 2.99 0 0 0-.417 1.522 3.02 3.02 0 0 0 1.373 2.522 3.044 3.044 0 0 1-1.398-.378v.037c0 1.469 1.061 2.69 2.47 2.969-.258.069-.532.106-.811.106a2.95 2.95 0 0 1-.579-.056 3.076 3.076 0 0 0 2.876 2.103 6.235 6.235 0 0 1-4.557 1.253A8.706 8.706 0 0 0 9.713 39c5.666 0 8.762-4.616 8.762-8.619 0-.131-.004-.262-.01-.39.6-.429 1.122-.96 1.535-1.57z" fill="#FFF"/><path d="M15 1.422a6.303 6.303 0 0 1-1.767.478A3.046 3.046 0 0 0 14.587.225c-.594.347-1.252.6-1.955.734A3.097 3.097 0 0 0 10.386 0c-1.7 0-3.077 1.356-3.077 3.028 0 .238.026.469.08.69A8.77 8.77 0 0 1 1.046.554a2.99 2.99 0 0 0-.417 1.522 3.02 3.02 0 0 0 1.373 2.522 3.044 3.044 0 0 1-1.398-.378v.037c0 1.469 1.061 2.69 2.47 2.969-.258.069-.532.106-.811.106a2.95 2.95 0 0 1-.579-.056A3.076 3.076 0 0 0 4.56 9.378a6.235 6.235 0 0 1-4.557 1.253A8.706 8.706 0 0 0 4.713 12c5.666 0 8.762-4.616 8.762-8.619 0-.131-.004-.262-.01-.39.6-.429 1.122-.96 1.535-1.57z" filter="url(#a)" transform="translate(5 49)" fill="#FFF"/></g></svg>