<svg width="26" height="67" viewBox="0 0 26 67" xmlns="http://www.w3.org/2000/svg"><title>E863C657-8563-48A0-AAAD-8708CA0FEDA0</title><defs><filter x="-50%" y="-50%" width="200%" height="200%" filterUnits="objectBoundingBox" id="a"><feOffset in="SourceAlpha" result="shadowOffsetOuter1"/><feGaussianBlur stdDeviation="2.5" in="shadowOffsetOuter1" result="shadowBlurOuter1"/><feColorMatrix values="0 0 0 0 0.596078431 0 0 0 0 0.850980392 0 0 0 0 0.937254902 0 0 0 1 0" in="shadowBlurOuter1" result="shadowMatrixOuter1"/><feMerge><feMergeNode in="shadowMatrixOuter1"/><feMergeNode in="SourceGraphic"/></feMerge></filter></defs><g fill="none" fill-rule="evenodd"><path d="M20.894 7.643c0-1.402-1.032-2.53-2.308-2.53A113.05 113.05 0 0 0 13.296 5h-.561c-1.797 0-3.562.031-5.29.112-1.272 0-2.305 1.135-2.305 2.537a45.638 45.638 0 0 0-.109 3.33c-.003 1.109.031 2.218.106 3.331 0 1.403 1.033 2.54 2.305 2.54 1.815.085 3.677.122 5.57.119 1.897.006 3.753-.031 5.57-.119 1.276 0 2.309-1.137 2.309-2.54.075-1.113.109-2.222.106-3.335a45.77 45.77 0 0 0-.103-3.332zm-9.407 6.393V7.91l4.523 3.06-4.523 3.065z" fill="#98D9EF"/><path d="M20.894 29.643c0-1.402-1.032-2.53-2.308-2.53a113.05 113.05 0 0 0-5.29-.113h-.561c-1.797 0-3.562.031-5.29.112-1.272 0-2.305 1.135-2.305 2.537a45.638 45.638 0 0 0-.109 3.33c-.003 1.109.031 2.218.106 3.331 0 1.403 1.033 2.54 2.305 2.54 1.815.085 3.677.122 5.57.119 1.897.006 3.753-.031 5.57-.119 1.276 0 2.309-1.137 2.309-2.54.075-1.113.109-2.222.106-3.335a45.77 45.77 0 0 0-.103-3.332zm-9.407 6.393V29.91l4.523 3.06-4.523 3.065z" fill="#FFF"/><path d="M15.894 2.643c0-1.402-1.032-2.53-2.308-2.53A113.05 113.05 0 0 0 8.296 0h-.561c-1.797 0-3.562.031-5.29.112C1.173.112.14 1.247.14 2.65a45.638 45.638 0 0 0-.109 3.33C.028 7.087.062 8.196.137 9.31c0 1.403 1.033 2.54 2.305 2.54 1.815.085 3.677.122 5.57.119 1.897.006 3.753-.031 5.57-.119 1.276 0 2.309-1.137 2.309-2.54.075-1.113.109-2.222.106-3.335a45.77 45.77 0 0 0-.103-3.332zM6.487 9.036V2.91l4.523 3.06-4.523 3.065z" filter="url(#a)" transform="translate(5 49)" fill="#FFF"/></g></svg>