<svg width="32" height="67" viewBox="0 0 32 67" xmlns="http://www.w3.org/2000/svg"><title>8F1CDBF3-5DD9-43F8-B718-4FC1D71440D8</title><defs><filter x="-50%" y="-50%" width="200%" height="200%" filterUnits="objectBoundingBox" id="a"><feOffset in="SourceAlpha" result="shadowOffsetOuter1"/><feGaussianBlur stdDeviation="2.5" in="shadowOffsetOuter1" result="shadowBlurOuter1"/><feColorMatrix values="0 0 0 0 0.596078431 0 0 0 0 0.850980392 0 0 0 0 0.937254902 0 0 0 1 0" in="shadowBlurOuter1" result="shadowMatrixOuter1"/><feMerge><feMergeNode in="shadowMatrixOuter1"/><feMergeNode in="SourceGraphic"/></feMerge></filter></defs><g fill="none" fill-rule="evenodd"><path d="M25.625 8.957c0 .876-.713 1.59-1.598 1.59-.881 0-1.599-.71-1.599-1.59 0-.876.713-1.59 1.599-1.59.88 0 1.598.714 1.598 1.59zM24.018 6a2.975 2.975 0 0 0-2.982 2.936l-1.856 2.65a2.212 2.212 0 0 0-1.366.3L9.4 8.52a2.231 2.231 0 0 0-2.174-1.739A2.223 2.223 0 0 0 5 8.996a2.226 2.226 0 0 0 3.36 1.901l8.413 3.36a2.227 2.227 0 0 0 4.388-.253l2.857-2.077c1.646 0 2.982-1.324 2.982-2.961A2.976 2.976 0 0 0 24.018 6zm0 .979c1.104 0 1.998.893 1.998 1.987a1.99 1.99 0 0 1-1.998 1.983 1.99 1.99 0 0 1-1.998-1.983c0-1.098.894-1.987 1.998-1.987zm-16.792.384c.627 0 1.173.35 1.448.863l-.812-.324v.004a1.3 1.3 0 0 0-1.646.73c-.262.65.039 1.381.675 1.663v.004l.691.274a1.63 1.63 0 0 1-1.99-1.59 1.625 1.625 0 0 1 1.634-1.624zm11.722 4.795a1.63 1.63 0 0 1 1.637 1.628 1.63 1.63 0 0 1-1.637 1.629c-.632 0-1.178-.35-1.448-.868.27.107.537.214.807.325A1.306 1.306 0 0 0 20 14.154a1.294 1.294 0 0 0-.726-1.684l-.683-.273c.12-.022.236-.039.357-.039z" fill="#98D9EF"/><path d="M25.625 30.957c0 .876-.713 1.59-1.598 1.59-.881 0-1.599-.71-1.599-1.59 0-.876.713-1.59 1.599-1.59.88 0 1.598.714 1.598 1.59zM24.018 28a2.975 2.975 0 0 0-2.982 2.936l-1.856 2.65a2.212 2.212 0 0 0-1.366.3L9.4 30.52a2.231 2.231 0 0 0-2.174-1.739A2.223 2.223 0 0 0 5 30.996a2.226 2.226 0 0 0 3.36 1.901l8.413 3.36a2.227 2.227 0 0 0 4.388-.253l2.857-2.077c1.646 0 2.982-1.324 2.982-2.961A2.976 2.976 0 0 0 24.018 28zm0 .979c1.104 0 1.998.893 1.998 1.987a1.99 1.99 0 0 1-1.998 1.983 1.99 1.99 0 0 1-1.998-1.983c0-1.098.894-1.987 1.998-1.987zm-16.792.384c.627 0 1.173.35 1.448.863l-.812-.324v.004a1.3 1.3 0 0 0-1.646.73c-.262.65.039 1.381.675 1.663v.004l.691.274a1.63 1.63 0 0 1-1.99-1.59 1.625 1.625 0 0 1 1.634-1.624zm11.722 4.795a1.63 1.63 0 0 1 1.637 1.628 1.63 1.63 0 0 1-1.637 1.629c-.632 0-1.178-.35-1.448-.868.27.107.537.214.807.325A1.306 1.306 0 0 0 20 36.154a1.294 1.294 0 0 0-.726-1.684l-.683-.273c.12-.022.236-.039.357-.039z" fill="#FFF"/><g filter="url(#a)" transform="translate(5 49)"><path d="M20.625 3.957c0 .876-.713 1.59-1.598 1.59-.881 0-1.599-.71-1.599-1.59 0-.876.713-1.59 1.599-1.59.88 0 1.598.714 1.598 1.59zM19.018 1a2.975 2.975 0 0 0-2.982 2.936l-1.856 2.65a2.212 2.212 0 0 0-1.366.3L4.4 3.52a2.231 2.231 0 0 0-2.174-1.739A2.223 2.223 0 0 0 0 3.996a2.226 2.226 0 0 0 3.36 1.901l8.413 3.36a2.227 2.227 0 0 0 4.388-.253l2.857-2.077C20.664 6.927 22 5.603 22 3.966A2.976 2.976 0 0 0 19.018 1zm0 .979c1.104 0 1.998.893 1.998 1.987a1.99 1.99 0 0 1-1.998 1.983 1.99 1.99 0 0 1-1.998-1.983c0-1.098.894-1.987 1.998-1.987zm-16.792.384c.627 0 1.173.35 1.448.863l-.812-.324v.004a1.3 1.3 0 0 0-1.646.73c-.262.65.039 1.381.675 1.663v.004l.691.274a1.63 1.63 0 0 1-1.99-1.59 1.625 1.625 0 0 1 1.634-1.624zm11.722 4.795a1.63 1.63 0 0 1 1.637 1.628 1.63 1.63 0 0 1-1.637 1.629c-.632 0-1.178-.35-1.448-.868.27.107.537.214.807.325A1.306 1.306 0 0 0 15 9.154a1.294 1.294 0 0 0-.726-1.684l-.683-.273c.12-.022.236-.039.357-.039z" fill="#FFF"/><path d="M0 0h22v12H0z"/></g></g></svg>