<svg width="16" height="67" viewBox="0 0 16 67" xmlns="http://www.w3.org/2000/svg"><title>DBEB05BA-2E2C-45E1-8686-EF17E9F99EAB</title><defs><filter x="-50%" y="-50%" width="200%" height="200%" filterUnits="objectBoundingBox" id="a"><feOffset in="SourceAlpha" result="shadowOffsetOuter1"/><feGaussianBlur stdDeviation="2.5" in="shadowOffsetOuter1" result="shadowBlurOuter1"/><feColorMatrix values="0 0 0 0 0.596078431 0 0 0 0 0.850980392 0 0 0 0 0.937254902 0 0 0 1 0" in="shadowBlurOuter1" result="shadowMatrixOuter1"/><feMerge><feMergeNode in="shadowMatrixOuter1"/><feMergeNode in="SourceGraphic"/></feMerge></filter></defs><g fill="none" fill-rule="evenodd"><path d="M9 9V7.81c0-.538.119-.81.953-.81H11V5H9.253c-2.14 0-2.847.981-2.847 2.666V9H5v2h1.406v6H9v-6h1.762L11 9H9z" fill="#98D9EF"/><path d="M9 31v-1.19c0-.538.119-.81.953-.81H11v-2H9.253c-2.14 0-2.847.981-2.847 2.666V31H5v2h1.406v6H9v-6h1.763L11 31H9z" fill="#FFF"/><path d="M4 4V2.81c0-.538.119-.81.953-.81H6V0H4.253c-2.14 0-2.847.981-2.847 2.666V4H0v2h1.406v6H4V6h1.763L6 4H4z" filter="url(#a)" transform="translate(5 49)" fill="#FFF"/></g></svg>