<svg width="28" height="67" viewBox="0 0 28 67" xmlns="http://www.w3.org/2000/svg"><title>E6C09605-59D8-4758-9F25-89D31DDF256B</title><defs><filter x="-50%" y="-50%" width="200%" height="200%" filterUnits="objectBoundingBox" id="a"><feOffset in="SourceAlpha" result="shadowOffsetOuter1"/><feGaussianBlur stdDeviation="2.5" in="shadowOffsetOuter1" result="shadowBlurOuter1"/><feColorMatrix values="0 0 0 0 0.596078431 0 0 0 0 0.850980392 0 0 0 0 0.937254902 0 0 0 1 0" in="shadowBlurOuter1" result="shadowMatrixOuter1"/><feMerge><feMergeNode in="shadowMatrixOuter1"/><feMergeNode in="SourceGraphic"/></feMerge></filter></defs><g fill="none" fill-rule="evenodd"><path d="M14.883 15.958s.325-.035.491-.209c.152-.16.147-.46.147-.46s-.02-1.406.65-1.613c.66-.204 1.508 1.359 2.408 1.96.68.454 1.195.355 1.195.355l2.404-.033s1.258-.075.662-1.038c-.05-.079-.348-.712-1.788-2.014-1.508-1.362-1.305-1.142.51-3.499 1.106-1.435 1.548-2.31 1.41-2.686-.131-.358-.945-.263-.945-.263l-2.706.017s-.201-.027-.35.06c-.145.084-.24.282-.24.282s-.427 1.11-.998 2.055c-1.206 1.993-1.687 2.098-1.884 1.975-.46-.29-.345-1.16-.345-1.777 0-1.932.301-2.737-.585-2.945-.294-.07-.51-.115-1.264-.123-.965-.01-1.782.004-2.245.224-.308.147-.546.474-.4.493.178.023.583.106.798.39.277.369.267 1.193.267 1.193s.16 2.274-.372 2.556c-.365.194-.865-.201-1.94-2.01-.55-.925-.965-1.95-.965-1.95s-.08-.19-.224-.293a1.126 1.126 0 0 0-.416-.163l-2.571.016s-.387.01-.528.174c-.126.145-.01.446-.01.446s2.013 4.588 4.294 6.9c2.09 2.12 4.464 1.98 4.464 1.98h1.076z" fill="#98D9EF"/><path d="M14.883 37.958s.325-.035.491-.209c.152-.16.147-.46.147-.46s-.02-1.406.65-1.613c.66-.204 1.508 1.359 2.408 1.96.68.454 1.195.355 1.195.355l2.404-.033s1.258-.075.662-1.038c-.05-.079-.348-.712-1.788-2.014-1.508-1.362-1.305-1.142.51-3.499 1.106-1.435 1.548-2.31 1.41-2.686-.131-.358-.945-.263-.945-.263l-2.706.017s-.201-.027-.35.06c-.145.084-.24.282-.24.282s-.427 1.11-.998 2.055c-1.206 1.993-1.687 2.098-1.884 1.975-.46-.29-.345-1.16-.345-1.777 0-1.932.301-2.737-.585-2.945-.294-.07-.51-.115-1.264-.123-.965-.01-1.782.004-2.245.224-.308.147-.546.474-.4.493.178.023.583.106.798.39.277.369.267 1.193.267 1.193s.16 2.274-.372 2.556c-.365.194-.865-.201-1.94-2.01-.55-.925-.965-1.95-.965-1.95s-.08-.19-.224-.293c-.173-.124-.416-.163-.416-.163l-2.571.016s-.387.01-.528.174c-.126.145-.01.446-.01.446s2.013 4.588 4.294 6.9c2.09 2.12 4.464 1.98 4.464 1.98h1.076z" fill="#FFF"/><path d="M5 27h18v12H5z"/><g filter="url(#a)" transform="translate(5 49)"><path d="M9.883 10.958s.325-.035.491-.209c.152-.16.147-.46.147-.46s-.02-1.406.65-1.613c.66-.204 1.508 1.359 2.408 1.96.68.454 1.195.355 1.195.355l2.404-.033s1.258-.075.662-1.038c-.05-.079-.348-.712-1.788-2.014-1.508-1.362-1.305-1.142.51-3.499 1.106-1.435 1.548-2.31 1.41-2.686-.131-.358-.945-.263-.945-.263l-2.706.017s-.201-.027-.35.06c-.145.084-.24.282-.24.282s-.427 1.11-.998 2.055c-1.206 1.993-1.687 2.098-1.884 1.975-.46-.29-.345-1.16-.345-1.777 0-1.932.301-2.737-.585-2.945-.294-.07-.51-.115-1.264-.123-.965-.01-1.782.004-2.245.224-.308.147-.546.474-.4.493.178.023.583.106.798.39.277.369.267 1.193.267 1.193s.16 2.274-.372 2.556c-.365.194-.865-.201-1.94-2.01-.55-.925-.965-1.95-.965-1.95s-.08-.19-.224-.293c-.173-.124-.416-.163-.416-.163l-2.571.016s-.387.01-.528.174c-.126.145-.01.446-.01.446s2.013 4.588 4.294 6.9c2.09 2.12 4.464 1.98 4.464 1.98h1.076z" fill="#FFF"/><path d="M0 0h18v12H0z"/></g></g></svg>