<svg width="25" height="50" viewBox="0 0 25 50" xmlns="http://www.w3.org/2000/svg"><title>92545865-C805-4F49-8F15-3E581A910F13</title><defs><filter x="-50%" y="-50%" width="200%" height="200%" filterUnits="objectBoundingBox" id="a"><feOffset in="SourceAlpha" result="shadowOffsetOuter1"/><feGaussianBlur stdDeviation="2.5" in="shadowOffsetOuter1" result="shadowBlurOuter1"/><feColorMatrix values="0 0 0 0 0.596078431 0 0 0 0 0.850980392 0 0 0 0 0.937254902 0 0 0 1 0" in="shadowBlurOuter1" result="shadowMatrixOuter1"/><feMerge><feMergeNode in="shadowMatrixOuter1"/><feMergeNode in="SourceGraphic"/></feMerge></filter></defs><g fill="#FFF" fill-rule="evenodd"><path d="M18.4 11.826c.883-.663.703-1.201-.408-1.201h-3.734l-1.162-3.72c-.329-1.052-.862-1.05-1.19 0l-1.163 3.72H7.009c-1.11 0-1.292.538-.408 1.2l3.051 2.29-1.242 3.974c-.33 1.055.094 1.358.963.662L12.5 16.25l3.127 2.501c.862.69 1.293.393.963-.662l-1.242-3.975 3.051-2.288z"/><path d="M12.4 5.826c.883-.663.703-1.201-.408-1.201H8.258L7.096.905c-.329-1.052-.862-1.05-1.19 0l-1.163 3.72H1.009c-1.11 0-1.292.538-.408 1.2l3.051 2.29-1.242 3.974c-.33 1.055.094 1.358.963.662L6.5 10.25l3.127 2.501c.862.69 1.293.393.963-.662L9.348 8.114 12.4 5.826z" filter="url(#a)" transform="translate(6 31)"/></g></svg>