<svg width="25" height="50" viewBox="0 0 25 50" xmlns="http://www.w3.org/2000/svg"><title>E0344E56-5F13-41FA-8E6F-F9A616C61956</title><defs><filter x="-50%" y="-50%" width="200%" height="200%" filterUnits="objectBoundingBox" id="a"><feOffset in="SourceAlpha" result="shadowOffsetOuter1"/><feGaussianBlur stdDeviation="2.5" in="shadowOffsetOuter1" result="shadowBlurOuter1"/><feColorMatrix values="0 0 0 0 0.596078431 0 0 0 0 0.850980392 0 0 0 0 0.937254902 0 0 0 1 0" in="shadowBlurOuter1" result="shadowMatrixOuter1"/><feMerge><feMergeNode in="shadowMatrixOuter1"/><feMergeNode in="SourceGraphic"/></feMerge></filter></defs><g fill="#FFF" fill-rule="evenodd"><path d="M8 18.514C8 19.331 8.675 20 9.5 20s1.5-.669 1.5-1.486-.675-1.486-1.5-1.486-1.5.669-1.5 1.486zM5 6h2l3 6-1.5 2c-.112.188-.5.54-.5 1 0 .5.5 1.055 1 1.055h9.01L18 15h-8c-1 0-.402-.777-.402-.777L10.5 13H16c.563 0 .963-.115 1.225-.603l2.7-4.655C20 7.5 20 7.15 20 7c0-.414-.588-1-1-1H8l-.5-1H5v1zm10 12.514c0 .817.675 1.486 1.5 1.486s1.5-.669 1.5-1.486-.675-1.486-1.5-1.486-1.5.669-1.5 1.486z"/><path d="M3 13.514C3 14.331 3.675 15 4.5 15S6 14.331 6 13.514s-.675-1.486-1.5-1.486-1.5.669-1.5 1.486zM0 1h2l3 6-1.5 2c-.112.188-.5.54-.5 1 0 .5.5 1.055 1 1.055h9.01L13 10H5c-1 0-.402-.777-.402-.777L5.5 8H11c.563 0 .963-.115 1.225-.603l2.7-4.655C15 2.5 15 2.15 15 2c0-.414-.588-1-1-1H3l-.5-1H0v1zm10 12.514c0 .817.675 1.486 1.5 1.486s1.5-.669 1.5-1.486-.675-1.486-1.5-1.486-1.5.669-1.5 1.486z" filter="url(#a)" transform="translate(5 30)"/></g></svg>