<svg width="25" height="50" viewBox="0 0 25 50" xmlns="http://www.w3.org/2000/svg"><title>ABF9BA13-3BAF-470F-BCC8-901E6D6A571E</title><defs><filter x="-50%" y="-50%" width="200%" height="200%" filterUnits="objectBoundingBox" id="a"><feOffset in="SourceAlpha" result="shadowOffsetOuter1"/><feGaussianBlur stdDeviation="2.5" in="shadowOffsetOuter1" result="shadowBlurOuter1"/><feColorMatrix values="0 0 0 0 0.596078431 0 0 0 0 0.850980392 0 0 0 0 0.937254902 0 0 0 1 0" in="shadowBlurOuter1" result="shadowMatrixOuter1"/><feMerge><feMergeNode in="shadowMatrixOuter1"/><feMergeNode in="SourceGraphic"/></feMerge></filter></defs><g fill="#FFF" fill-rule="evenodd"><path d="M8 7c0-1.105.902-2 2.009-2h7.982A2 2 0 0 1 20 7v6c0 1.105-.902 2-2.009 2H10.01A2 2 0 0 1 8 13V7zm5 8h3v2l-1.97-1.766C13.636 15 13.304 15 13 15z"/><path d="M7 10h-.003A1.999 1.999 0 0 0 5 11.998v4.004C5 17.113 5.894 18 6.997 18h5.006A1.999 1.999 0 0 0 14 16.002V16H8.992A1.99 1.99 0 0 1 7 14v-4zm3 8H7v2l1.97-1.766C9.364 18 9.696 18 10 18z"/><g filter="url(#a)" transform="translate(5 30)"><path d="M3 2c0-1.105.902-2 2.009-2h7.982A2 2 0 0 1 15 2v6c0 1.105-.902 2-2.009 2H5.01A2 2 0 0 1 3 8V2zm5 8h3v2l-1.97-1.766C8.636 10 8.304 10 8 10z"/><path d="M2 5h-.003A1.999 1.999 0 0 0 0 6.998v4.004C0 12.113.894 13 1.997 13h5.006A1.999 1.999 0 0 0 9 11.002V11H3.992A1.99 1.99 0 0 1 2 9V5zm3 8H2v2l1.97-1.766C4.364 13 4.696 13 5 13z"/></g></g></svg>