<svg width="25" height="50" viewBox="0 0 25 50" xmlns="http://www.w3.org/2000/svg"><title>72E1176C-1C9B-4412-91CD-639457FBC779</title><defs><filter x="-50%" y="-50%" width="200%" height="200%" filterUnits="objectBoundingBox" id="a"><feOffset in="SourceAlpha" result="shadowOffsetOuter1"/><feGaussianBlur stdDeviation="2.5" in="shadowOffsetOuter1" result="shadowBlurOuter1"/><feColorMatrix values="0 0 0 0 0.596078431 0 0 0 0 0.850980392 0 0 0 0 0.937254902 0 0 0 1 0" in="shadowBlurOuter1" result="shadowMatrixOuter1"/><feMerge><feMergeNode in="shadowMatrixOuter1"/><feMergeNode in="SourceGraphic"/></feMerge></filter></defs><g fill="#FFF" fill-rule="evenodd"><path d="M7 5v13H6V7H5v12c0 .5.5 1 1 1h13c.5 0 1-.5 1-1V5H7zm2 2h5v1H9V7zm7 6v1H9v-1h7zm2 4H9v-1h9v1zm0-6H9v-1h9v1z"/><path d="M2 0v13H1V2H0v12c0 .5.5 1 1 1h13c.5 0 1-.5 1-1V0H2zm2 2h5v1H4V2zm7 6v1H4V8h7zm2 4H4v-1h9v1zm0-6H4V5h9v1z" filter="url(#a)" transform="translate(5 30)"/></g></svg>