<svg width="25" height="50" viewBox="0 0 25 50" xmlns="http://www.w3.org/2000/svg"><title>4D6DDDF2-F941-4447-8DE9-03AAD0EC4C06</title><defs><filter x="-50%" y="-50%" width="200%" height="200%" filterUnits="objectBoundingBox" id="a"><feOffset in="SourceAlpha" result="shadowOffsetOuter1"/><feGaussianBlur stdDeviation="2.5" in="shadowOffsetOuter1" result="shadowBlurOuter1"/><feColorMatrix values="0 0 0 0 0.596078431 0 0 0 0 0.850980392 0 0 0 0 0.937254902 0 0 0 1 0" in="shadowBlurOuter1" result="shadowMatrixOuter1"/><feMerge><feMergeNode in="shadowMatrixOuter1"/><feMergeNode in="SourceGraphic"/></feMerge></filter></defs><g fill="none" fill-rule="evenodd"><path d="M20 20s0-1.031-.086-1.57c-.07-.426-.66-.989-3.168-1.91-2.469-.907-2.316-.465-2.316-2.133 0-1.082.55-.453.902-2.508.137-.809.246-.27.543-1.566.156-.68-.105-.731-.074-1.055.031-.324.062-.613.12-1.278.071-.82-.69-2.98-3.421-2.98-2.73 0-3.492 2.16-3.418 2.984.059.66.09.954.121 1.278.031.324-.23.375-.074 1.054.297 1.293.406.754.543 1.567.351 2.055.902 1.426.902 2.508 0 1.671.153 1.23-2.316 2.132-2.508.918-3.102 1.485-3.168 1.91C5 18.97 5 20 5 20h15z" fill="#FFF"/><g filter="url(#a)" transform="translate(0 25)"><path d="M0 0h25v25H0z"/><path d="M20 20s0-1.031-.086-1.57c-.07-.426-.66-.989-3.168-1.91-2.469-.907-2.316-.465-2.316-2.133 0-1.082.55-.453.902-2.508.137-.809.246-.27.543-1.566.156-.68-.105-.731-.074-1.055.031-.324.062-.613.12-1.278.071-.82-.69-2.98-3.421-2.98-2.73 0-3.492 2.16-3.418 2.984.059.66.09.954.121 1.278.031.324-.23.375-.074 1.054.297 1.293.406.754.543 1.567.351 2.055.902 1.426.902 2.508 0 1.671.153 1.23-2.316 2.132-2.508.918-3.102 1.485-3.168 1.91C5 18.97 5 20 5 20h15z" fill="#FFF"/></g></g></svg>