<?xml version="1.0" encoding="UTF-8"?>
<svg width="15px" height="15px" viewBox="0 0 15 15" version="1.1" xmlns="http://www.w3.org/2000/svg" xmlns:xlink="http://www.w3.org/1999/xlink">
    <!-- Generator: sketchtool 40.3 (33839) - http://www.bohemiancoding.com/sketch -->
    <title>F88DC504-B76A-416E-AB2F-4298FD1F6F0D</title>
    <desc>Created with sketchtool.</desc>
    <defs></defs>
    <g id="UI-Kit" stroke="none" stroke-width="1" fill="none" fill-rule="evenodd">
        <g id="UI-Elements" transform="translate(-627.000000, -398.000000)">
            <g id="Sidebar-Mini-Copy-3" transform="translate(614.000000, 266.000000)">
                <rect id="Rectangle-3-Copy-3" fill-opacity="0.700000048" fill="#667380" x="0" y="0" width="40" height="364"></rect>
                <g id="Dividers" transform="translate(0.000000, 40.000000)"></g>
                <g id="Achievments" transform="translate(13.000000, 131.500000)" fill="#FFFFFF">
                    <path d="M14.9949055,2.88868304 C14.993198,2.79382813 14.9949055,2.56907366 14.9949055,2.5 L12.3023962,2.5 C12.3546265,1.34094866 12.3023962,0.5 12.3023962,0.5 L7.52907556,0.5 C7.51779246,0.5 7.50667676,0.500736607 7.49559455,0.501875 C7.48454582,0.500736607 7.47343012,0.5 7.46211354,0.5 L2.67663933,0.5 C2.67663933,0.5 2.62440895,1.34094866 2.67663933,2.5 L0.00539044258,2.5 L-2.66453526e-15,2.64285714 L-2.66453526e-15,3.33084821 L-2.66453526e-15,3.34229911 L-2.66453526e-15,3.71428571 L0.00539044258,3.71428571 C0.0325435415,4.58803571 0.172125871,5.75666295 0.753121834,6.95297991 C1.24589534,7.96772321 1.95549186,8.81672991 2.86229153,9.47642857 C3.61300273,10.0225893 4.47075272,10.4160714 5.41371188,10.6511161 C5.9582805,11.2323326 6.4953159,11.5527567 6.96405004,11.681596 L6.96405004,12.8743973 C6.89708802,13.2287388 6.83336393,14.5 4,14.5 L3,14.5 L3,15.5 L12,15.5 L12,14.5 L11,14.5 C7.67587142,14.5 8.03544235,12.7767634 8.03544235,12.7767634 L8.03544235,11.6814286 C8.50417649,11.5527567 9.03083277,11.2336384 9.57255551,10.6554018 C10.5223783,10.4208929 11.3829407,10.025904 12.1383057,9.47639509 C13.0450384,8.81669643 13.7541662,7.96768973 14.2469397,6.95294643 C15.03977,5.32032366 15.0104072,3.7384933 14.9949055,2.88868304 L14.9949055,2.88868304 Z M1,3.5 L2.68803961,3.5 C2.71710113,3.79845982 2.83383267,4.30695312 2.88037127,4.58415179 C3.16539511,6.28199777 3.55712292,7.78146205 4.29842596,9.10454241 C3.16549555,8.530625 2.27570424,7.63668527 1.71630352,6.48476562 C1.23216812,5.48770089 1.02782272,4.26995536 1,3.5 Z M13.2831554,6.48476562 C12.7204401,7.64358259 11.8232829,8.54127232 10.68071,9.11478795 C11.4244906,7.78919643 11.8129038,6.28638393 12.0986977,4.58418527 C12.1452363,4.30695312 12.2721963,3.79842634 12.3012578,3.5 L14,3.5 C13.9721773,4.26992187 13.7673243,5.48770089 13.2831554,6.48476562 L13.2831554,6.48476562 Z" id="Shape"></path>
                </g>
            </g>
        </g>
    </g>
</svg>