<?xml version="1.0" encoding="UTF-8" standalone="no"?>
<svg width="482px" height="552px" viewBox="0 0 482 552" version="1.1" xmlns="http://www.w3.org/2000/svg" xmlns:xlink="http://www.w3.org/1999/xlink">
    <!-- Generator: Sketch 40.3 (33839) - http://www.bohemiancoding.com/sketch -->
    <title>CG_logo</title>
    <desc>Created with Sketch.</desc>
    <defs>
        <polygon id="path-1" points="241 552 0 552 0 2.27373675e-13 241 2.27373675e-13 482 2.27373675e-13 482 552 241 552"></polygon>
    </defs>
    <g id="TvOS" stroke="none" stroke-width="1" fill="none" fill-rule="evenodd">
        <g id="CG_logo" transform="translate(0.000000, -1.000000)">
            <path d="M222.295755,378.242146 L145.858936,334.140808 C144.805167,333.532789 144.155693,332.409755 144.155693,331.193718 L144.155693,222.805429 C144.155693,221.588392 144.805167,220.464358 145.859937,219.856339 L222.295755,175.758001 C223.350526,175.149982 224,174.024948 224,172.807911 L224,97.4106232 C224,94.7885436 221.159926,93.1504939 218.887266,94.4615337 L73.7042445,178.224076 C72.6494743,178.833094 72,179.957128 72,181.174165 L72,372.823982 C72,374.041019 72.6494743,375.165053 73.7042445,375.774071 L218.887266,459.538613 C221.158925,460.849653 224,459.210603 224,456.588524 L224,381.192236 C224,379.975199 223.350526,378.850165 222.295755,378.242146" id="Fill-1" fill="#221F20"></path>
            <g id="Group-5" transform="translate(0.000000, 1.000000)">
                <mask id="mask-2" fill="white">
                    <use xlink:href="#path-1"></use>
                </mask>
                <g id="Clip-4"></g>
                <path d="M446,388.493068 C446,392.248832 443.996457,395.719387 440.742951,397.59777 L246.756548,509.591213 C243.504043,511.469596 239.495957,511.469596 236.243452,509.591213 L42.2550473,397.595769 C39.0025423,395.718387 37,392.247832 37,388.493068 L37,164.506182 C37,160.750417 39.0035431,157.278861 42.2570488,155.400479 L236.243452,43.4080365 C239.495957,41.5306545 243.504043,41.5306545 246.756548,43.4080365 L440.743952,155.400479 C443.996457,157.277861 446,160.748416 446,164.50318 L446,388.493068 Z M474.621316,132.598787 L248.378684,1.97744421 C243.812642,-0.659148069 238.187358,-0.659148069 233.621316,1.97744421 L7.37868393,132.598787 C2.81264189,135.235379 -1.13686838e-13,140.106473 -1.13686838e-13,145.378658 L-1.13686838e-13,406.618342 C-1.13686838e-13,411.891526 2.81364212,416.764621 7.37968416,419.401213 L233.621316,550.022556 C238.187358,552.659148 243.812642,552.659148 248.378684,550.022556 L474.622316,419.401213 C479.187358,416.764621 482,411.893527 482,406.622343 L482,145.378658 C482,140.106473 479.187358,135.235379 474.621316,132.598787 L474.621316,132.598787 Z" id="Fill-3" fill="#221F20" mask="url(#mask-2)"></path>
            </g>
            <path d="M215.165055,262.536843 L250.917132,241.332082 C252.48477,240.40225 254.460193,241.53448 254.474083,243.370095 L254.999937,314.593363 C255.012835,316.428978 253.053287,317.592269 251.470766,316.685484 L215.419053,296.024794 C214.052826,295.242253 213.203523,293.781376 213.191617,292.19425 L213.000127,266.390432 C212.988221,264.807314 213.813712,263.338421 215.165055,262.536843 M258.657313,95.3828064 L258.7794,193.205018 C258.781401,194.053892 258.328081,194.83885 257.59156,195.264286 L180.187846,239.991942 C179.451326,240.417378 178.998005,241.202336 179.000007,242.05121 L179.086067,311.153527 C179.087068,312.0024 179.541389,312.78636 180.278911,313.209799 L257.794703,357.744711 C258.532225,358.168149 258.987547,358.952109 258.988547,359.800982 L259.110634,457.623194 C259.112635,459.452767 261.099039,460.593253 262.68516,459.67647 L409.811158,374.659269 C410.548679,374.233833 411.000999,373.447876 410.999998,372.599002 L410.847891,291.962988 C410.845889,291.023235 410.289496,290.172364 409.427887,289.792868 L360.337187,261.748077 C358.762073,261.054996 356.992823,262.207467 356.994824,263.925188 L357.081886,332.931632 C357.082886,333.840426 356.56452,334.670325 355.746942,335.069795 L325.512571,352.465715 C323.931453,353.23769 322.087149,352.090213 322.085148,350.333544 L321.955056,206.759035 C321.954055,204.994376 323.812369,203.843903 325.396489,204.628861 L407.358424,251.982034 C408.941543,252.766993 410.799857,251.616519 410.798856,249.85186 L410.758828,180.027502 C410.758828,179.177629 410.303506,178.393669 409.565985,177.969233 L262.226836,93.3205426 C260.637713,92.4077537 258.655312,93.5532339 258.657313,95.3828064" id="Fill-6" fill="#221F20"></path>
        </g>
    </g>
</svg>