<?xml version="1.0" encoding="UTF-8"?>
<svg width="16px" height="16px" viewBox="0 0 16 16" version="1.1" xmlns="http://www.w3.org/2000/svg" xmlns:xlink="http://www.w3.org/1999/xlink">
    <!-- Generator: sketchtool 40.3 (33839) - http://www.bohemiancoding.com/sketch -->
    <title>8CB4CE4C-6229-4516-B627-5DBF5B169E4E</title>
    <desc>Created with sketchtool.</desc>
    <defs>
        <rect id="path-1" x="0" y="0" width="620" height="30"></rect>
        <filter x="-50%" y="-50%" width="200%" height="200%" filterUnits="objectBoundingBox" id="filter-2">
            <feOffset dx="0" dy="1" in="SourceAlpha" result="shadowOffsetInner1"></feOffset>
            <feComposite in="shadowOffsetInner1" in2="SourceAlpha" operator="arithmetic" k2="-1" k3="1" result="shadowInnerInner1"></feComposite>
            <feColorMatrix values="0 0 0 0 0.32   0 0 0 0 0.36   0 0 0 0 0.4  0 0 0 1 0" type="matrix" in="shadowInnerInner1"></feColorMatrix>
        </filter>
        <path d="M15.0083333,8.1375 C15.5833333,7.95 16,7.40833333 16,6.77083333 C16,5.97916667 15.3583333,5.33333333 14.5625,5.33333333 L10.2875,5.33333333 C10.3708333,4.29166667 10.7041667,3.1 10.3333333,1.69583333 C10.0208333,0.5125 8.69166667,-0.375 8.15,0.1625 C7.94166667,0.366666667 8.00416667,0.795833333 8.00416667,1.57083333 C8.00416667,3.35416667 7.2625,5.15833333 6.34583333,6.1 C5.95416667,6.50416667 5.29583333,6.64166667 4.67083333,6.66666667 L4.67083333,6 L0,6 L0,16 L4.66666667,16 L4.66666667,14.6666667 C5.525,14.6458333 6.85833333,14.8833333 7.825,14.9416667 C9.99166667,15.0708333 12.075,14.8416667 13.0875,14.6041667 C14.1,14.3666667 14.5458333,14.0625 14.5458333,13.3291667 C14.5458333,13.0625 14.4666667,12.8166667 14.3333333,12.6083333 C14.825,12.4125 15.1708333,11.9333333 15.1708333,11.3708333 C15.1708333,11.0708333 15.0708333,10.7958333 14.9041667,10.5708333 C15.4,10.3791667 15.7541667,9.89583333 15.7541667,9.32916667 C15.75,8.80833333 15.4458333,8.35416667 15.0083333,8.1375 L15.0083333,8.1375 Z" id="path-3"></path>
        <mask id="mask-4" maskContentUnits="userSpaceOnUse" maskUnits="objectBoundingBox" x="0" y="0" width="16" height="15.9981338" fill="white">
            <use xlink:href="#path-3"></use>
        </mask>
    </defs>
    <g id="UI-Kit" stroke="none" stroke-width="1" fill="none" fill-rule="evenodd">
        <g id="UI-Elements" transform="translate(-539.000000, -1460.000000)">
            <g id="Lower-Line" transform="translate(30.000000, 1453.000000)">
                <g id="Rectangle-3-Copy-16">
                    <use fill="#292E33" fill-rule="evenodd" xlink:href="#path-1"></use>
                    <use fill="black" fill-opacity="1" filter="url(#filter-2)" xlink:href="#path-1"></use>
                </g>
                <g id="Group-2" transform="translate(509.000000, 7.000000)" stroke="#98D9EF" stroke-width="2">
                    <use id="Combined-Shape" mask="url(#mask-4)" xlink:href="#path-3"></use>
                </g>
            </g>
        </g>
    </g>
</svg>