<svg width="29" height="58" viewBox="0 0 29 58" xmlns="http://www.w3.org/2000/svg" xmlns:xlink="http://www.w3.org/1999/xlink"><title>F3B5AE54-B5A7-4D80-8FE4-47C8DC1818F0</title><defs><path d="M23.852 49.884l-4.196-4.228a7.685 7.685 0 0 0 1.039-3.834c0-4.312-3.523-7.822-7.848-7.822C8.523 34 5 37.51 5 41.822c0 4.311 3.523 7.821 7.847 7.821 1.38 0 2.746-.379 3.964-1.103l4.176 4.214a.503.503 0 0 0 .722 0l2.143-2.156a.503.503 0 0 0 0-.714zM12.847 37.047c2.643 0 4.79 2.141 4.79 4.775 0 2.633-2.147 4.774-4.79 4.774-2.642 0-4.79-2.141-4.79-4.774 0-2.634 2.148-4.775 4.79-4.775z" id="b"/><filter x="-50%" y="-50%" width="200%" height="200%" filterUnits="objectBoundingBox" id="a"><feOffset in="SourceAlpha" result="shadowOffsetOuter1"/><feGaussianBlur stdDeviation="2.5" in="shadowOffsetOuter1" result="shadowBlurOuter1"/><feColorMatrix values="0 0 0 0 0.596078431 0 0 0 0 0.850980392 0 0 0 0 0.937254902 0 0 0 1 0" in="shadowBlurOuter1"/></filter></defs><g fill="none" fill-rule="evenodd"><path d="M23.852 20.884l-4.196-4.228a7.685 7.685 0 0 0 1.039-3.834C20.695 8.51 17.172 5 12.847 5 8.523 5 5 8.51 5 12.822c0 4.311 3.523 7.821 7.847 7.821 1.38 0 2.746-.379 3.964-1.103l4.176 4.214a.503.503 0 0 0 .722 0l2.143-2.156a.503.503 0 0 0 0-.714zM12.847 8.047c2.643 0 4.79 2.141 4.79 4.775 0 2.633-2.147 4.774-4.79 4.774-2.642 0-4.79-2.141-4.79-4.774 0-2.634 2.148-4.775 4.79-4.775z" fill="#FFF"/><g><use fill="#000" filter="url(#a)" xlink:href="#b"/><use fill="#FFF" xlink:href="#b"/></g></g></svg>