<?xml version="1.0" encoding="UTF-8"?>
<svg width="16px" height="16px" viewBox="0 0 16 16" version="1.1" xmlns="http://www.w3.org/2000/svg" xmlns:xlink="http://www.w3.org/1999/xlink">
    <!-- Generator: sketchtool 40.3 (33839) - http://www.bohemiancoding.com/sketch -->
    <title>CD3C5AB8-9825-4D7E-AD00-39DFD945B110</title>
    <desc>Created with sketchtool.</desc>
    <defs>
        <rect id="path-1" x="0" y="0" width="620" height="30"></rect>
        <filter x="-50%" y="-50%" width="200%" height="200%" filterUnits="objectBoundingBox" id="filter-2">
            <feOffset dx="0" dy="1" in="SourceAlpha" result="shadowOffsetInner1"></feOffset>
            <feComposite in="shadowOffsetInner1" in2="SourceAlpha" operator="arithmetic" k2="-1" k3="1" result="shadowInnerInner1"></feComposite>
            <feColorMatrix values="0 0 0 0 0.32   0 0 0 0 0.36   0 0 0 0 0.4  0 0 0 1 0" type="matrix" in="shadowInnerInner1"></feColorMatrix>
        </filter>
    </defs>
    <g id="UI-Kit" stroke="none" stroke-width="1" fill="none" fill-rule="evenodd">
        <g id="UI-Elements" transform="translate(-593.000000, -1511.000000)">
            <g id="Lower-Line-Copy" transform="translate(30.000000, 1503.000000)">
                <g id="Rectangle-3-Copy-16">
                    <use fill="#292E33" fill-rule="evenodd" xlink:href="#path-1"></use>
                    <use fill="black" fill-opacity="1" filter="url(#filter-2)" xlink:href="#path-1"></use>
                </g>
                <rect id="Rectangle-3-Copy-2" fill="#515C66" x="558" y="4" width="47" height="22" rx="3"></rect>
            </g>
            <g id="Group-5-Copy" transform="translate(601.606602, 1518.606602) rotate(-315.000000) translate(-601.606602, -1518.606602) translate(596.606602, 1508.606602)" fill="#9EE1F8">
                <path d="M1.09613463,17.054108 C0.410246173,16.1982068 2.27373675e-13,15.1118837 2.27373675e-13,13.9297424 C2.27373675e-13,12.4380978 0.653185473,11.0990128 1.68913221,10.1829117 C1.2462017,9.18900736 1,8.08812664 1,6.92974244 C1,3.96861301 2.60879452,1.38323768 5,3.41060513e-13 C7.39120548,1.38323768 9,3.96861301 9,6.92974244 C9,8.08812664 8.7537983,9.18900736 8.31086779,10.1829117 C9.34681453,11.0990128 10,12.4380978 10,13.9297424 C10,15.1118837 9.58975383,16.1982068 8.90386537,17.054108 C8.50457335,15.2661307 6.90835178,13.9297424 5,13.9297424 C3.09164822,13.9297424 1.49542665,15.2661307 1.09613463,17.054108 L1.09613463,17.054108 Z M5,8 C5.55228475,8 6,7.55228475 6,7 C6,6.44771525 5.55228475,6 5,6 C4.44771525,6 4,6.44771525 4,7 C4,7.55228475 4.44771525,8 5,8 Z" id="Combined-Shape"></path>
                <path d="M6.90372643,15.6813049 C6.38581375,15.2555854 5.72275446,15 5,15 C4.27724554,15 3.61418625,15.2555854 3.09627357,15.6813049 C3.03333323,15.9439338 3,16.2180742 3,16.5 C3,17.896198 3.81752633,19.1014525 5,19.6631844 C6.18247367,19.1014525 7,17.896198 7,16.5 C7,16.2180742 6.96666677,15.9439338 6.90372643,15.6813049 L6.90372643,15.6813049 Z" id="Combined-Shape-Copy-4"></path>
            </g>
            <path d="M621.316836,1539.59638 L621.307462,1539.59363 L621.307462,1537.21429 C621.307462,1536.1492 620.425361,1535.28571 619.337313,1535.28571 C618.249265,1535.28571 617.367164,1536.1492 617.367164,1537.21429 L617.367164,1537.8258 L617.367164,1535.92857 C617.367164,1534.86349 616.485062,1534 615.397014,1534 C614.308967,1534 613.426865,1534.86349 613.426865,1535.92857 L613.426865,1526.92857 C613.426865,1525.86349 612.544764,1525 611.456716,1525 C610.368668,1525 609.486567,1525.86349 609.486567,1526.92857 L609.486567,1542.46944 L609.337281,1542.75062 L606.792716,1538.5 L605.699808,1536.71813 C604.897432,1535.48114 602.378399,1536.30889 603.142555,1538.2624 C603.142555,1538.2624 605.589086,1544.98257 608.578196,1548.39113 C608.578196,1548.39113 610.617695,1550.55807 610.785946,1551.98521 L610.741482,1551.67775 L610.776922,1551.78777 L621.293428,1551.96829 L621.293408,1551.98521 C621.294395,1551.97964 621.295393,1551.97402 621.296402,1551.96834 L621.463513,1551.97121 L621.634391,1550.31524 C621.945593,1548.96005 622.431043,1547.21999 623.078758,1545.97463 C624.458913,1543.32117 624.840728,1539.84691 624.840728,1539.84691 C624.840728,1538.78183 624.365659,1537.85714 623.277611,1537.85714 C622.254824,1537.85714 621.414019,1538.62015 621.316836,1539.59638 Z M613.426865,1536.60478 L613.426865,1535.92857 Z" id="Combined-Shape-Copy-12" stroke="#141719" fill="#FFFFFF"></path>
        </g>
    </g>
</svg>