<svg width="30" height="15" viewBox="0 0 30 15" xmlns="http://www.w3.org/2000/svg"><title>E4016139-06AF-4F90-92EB-C4301D20CA7E</title><g fill="#98D9EF" fill-rule="evenodd"><path d="M14.83 12.607L9.705 7.465l5.137-5.076a.542.542 0 0 0 0-.765L13.38.156A.538.538 0 0 0 12.998 0a.554.554 0 0 0-.383.156l-5.113 5.06L2.381.16a.538.538 0 0 0-.383-.156.554.554 0 0 0-.383.156L.158 1.628a.542.542 0 0 0 0 .765L5.295 7.47.174 12.607a.54.54 0 0 0 0 .765l1.46 1.468a.539.539 0 0 0 .766 0l5.102-5.122 5.105 5.118a.539.539 0 0 0 .766 0l1.461-1.468a.54.54 0 0 0 .16-.383.56.56 0 0 0-.164-.378z"/><path d="M29.83 12.607l-5.125-5.142 5.137-5.076a.542.542 0 0 0 0-.765L28.38.156A.538.538 0 0 0 27.998 0a.554.554 0 0 0-.383.156l-5.113 5.06L17.381.16a.538.538 0 0 0-.383-.156.554.554 0 0 0-.383.156l-1.457 1.468a.542.542 0 0 0 0 .765l5.137 5.076-5.121 5.138a.54.54 0 0 0 0 .765l1.46 1.468a.539.539 0 0 0 .766 0l5.102-5.122 5.105 5.118a.539.539 0 0 0 .766 0l1.461-1.468a.54.54 0 0 0 .16-.383.56.56 0 0 0-.164-.378z" opacity=".7"/></g></svg>